PathFileType   4   (X/Y/Z)
DataRate	CameraRate	NumFrames	NumMarkers	Units	OrigDataRate	OrigDataStartFrame	OrigNumFrames
120.0	120.0	8	37	mm	120.0	98	194
Frame#	Time	midhip	hip_r	hip_l	knee_r	knee_l	ankle_r	ankle_l	midasis	asis_r	asis_l	psis_r	psis_l	epicondLat_r	epicondLat_l	epicondMed_r	epicondMed_l	malleolusLat_r	malleolusLat_l	malleolusMedv_r	malleolusMedv_l	neck	subclavicle_r	subclavicle_l	sternalnotch	xyphoidprocess	thighwand_r	thighwand_l	upperleg1_r	upperleg1_l	upperleg2_r	upperleg2_l	shankwand_r	shankwand_l	lowerleg1_r	lowerleg1_l	toe_r	toe_l
 	 	X1	Y1	Z1	X2	Y2	Z2	X3	Y3	Z3	X4	Y4	Z4	X5	Y5	Z5	X6	Y6	Z6	X7	Y7	Z7	X8	Y8	Z8	X9	Y9	Z9	X10	Y10	Z10	X11	Y11	Z11	X12	Y12	Z12	X13	Y13	Z13	X14	Y14	Z14	X15	Y15	Z15	X16	Y16	Z16	X17	Y17	Z17	X18	Y18	Z18	X19	Y19	Z19	X20	Y20	Z20	X21	Y21	Z21	X22	Y22	Z22	X23	Y23	Z23	X24	Y24	Z24	X25	Y25	Z25	X26	Y26	Z26	X27	Y27	Z27	X28	Y28	Z28	X29	Y29	Z29	X30	Y30	Z30	X31	Y31	Z31	X32	Y32	Z32	X33	Y33	Z33	X34	Y34	Z34	X35	Y35	Z35	X36	Y36	Z36	X37	Y37	Z37

	98	1.15833	1162.651	683.495	-224.044	1152.712	689.542	-158.281	1161.280	689.458	-283.818	1080.050	383.067	-168.179	1222.388	380.333	-258.340	880.724	116.296	-167.096	1300.428	64.383	-257.623	1220.773	754.794	-216.740	1214.200	754.859	-120.445	1227.346	754.730	-313.035	1071.562	790.368	-207.349	1074.182	784.530	-262.351	1076.559	382.268	-117.806	1222.040	376.158	-308.164	1081.280	376.401	-216.414	1221.197	379.725	-202.187	876.154	119.845	-134.100	1293.121	62.502	-291.288	882.764	129.929	-193.530	1294.720	68.803	-228.955	1109.315	1139.265	-232.947	1188.862	1090.670	-169.612	1181.388	1087.382	-299.069	1178.627	1077.880	-236.200	1189.332	934.341	-232.482	1092.890	468.687	-38.323	1331.910	500.173	-301.221	1141.491	521.652	-102.068	1253.521	549.218	-251.385	1135.822	438.675	-117.276	1257.069	462.542	-236.028	928.520	212.711	-60.314	1355.058	182.236	-301.255	967.722	251.281	-120.799	1283.219	221.976	-278.063	930.881	39.283	-186.353	1392.592	55.228	-267.090
	99	1.16667	1167.470	683.928	-224.721	1157.500	690.005	-159.018	1165.920	689.972	-284.565	1085.714	383.077	-167.462	1224.890	380.631	-258.724	884.828	117.968	-166.567	1300.883	64.190	-257.507	1225.728	755.049	-217.515	1219.267	755.074	-121.177	1232.189	755.024	-313.853	1076.749	791.107	-207.610	1079.095	785.386	-262.682	1082.209	382.511	-117.087	1224.625	376.419	-308.546	1086.289	376.052	-215.224	1223.435	380.186	-202.521	880.070	121.684	-133.616	1293.731	62.343	-291.207	887.086	131.390	-193.031	1295.045	68.669	-228.864	1114.970	1139.976	-233.598	1194.556	1091.185	-170.445	1186.838	1087.973	-299.898	1183.844	1078.313	-236.989	1194.609	934.886	-233.395	1098.242	469.299	-38.051	1335.183	499.717	-301.428	1147.076	522.025	-102.071	1257.101	549.429	-251.826	1141.065	438.900	-116.598	1259.986	462.665	-236.359	932.626	214.546	-59.909	1356.461	181.659	-300.895	972.605	252.296	-120.335	1284.815	221.872	-278.088	932.194	39.352	-186.295	1393.033	54.297	-266.503
	100	1.17500	1172.288	684.341	-225.416	1162.250	690.444	-159.749	1170.514	690.474	-285.306	1091.595	383.006	-166.717	1227.421	380.919	-259.121	889.111	119.639	-166.023	1301.319	63.994	-257.399	1230.613	755.312	-218.284	1224.269	755.289	-121.912	1236.956	755.334	-314.657	1081.927	791.779	-207.895	1083.938	786.183	-263.008	1088.102	382.667	-116.340	1227.251	376.674	-308.941	1096.094	375.021	-215.345	1225.525	380.645	-202.862	884.172	123.523	-133.117	1294.326	62.180	-291.134	891.530	132.827	-192.483	1295.389	68.505	-228.832	1120.582	1140.620	-234.277	1200.246	1091.635	-171.295	1192.238	1088.466	-300.649	1189.168	1078.749	-237.759	1199.848	935.349	-234.233	1103.801	469.820	-37.759	1338.480	499.289	-301.615	1152.776	522.300	-101.976	1260.763	549.624	-252.268	1148.461	439.327	-116.226	1262.871	462.691	-236.673	936.959	216.367	-59.480	1357.865	181.056	-300.535	977.725	253.233	-119.812	1286.393	221.737	-278.145	933.602	39.503	-186.190	1393.445	53.367	-265.949
	101	1.18333	1177.097	684.734	-226.121	1166.953	690.866	-160.460	1175.049	690.959	-286.028	1097.702	382.860	-165.956	1229.993	381.196	-259.526	893.564	121.329	-165.469	1301.737	63.796	-257.296	1235.417	755.584	-219.043	1229.202	755.513	-122.647	1241.632	755.656	-315.438	1087.094	792.381	-208.217	1088.708	786.920	-263.338	1094.244	382.739	-115.575	1229.919	376.921	-309.342	1101.273	374.014	-213.541	1227.666	380.918	-203.281	888.457	125.376	-132.609	1294.905	62.015	-291.066	896.091	134.285	-191.840	1295.495	68.311	-229.053	1126.108	1141.214	-234.887	1204.350	1091.392	-171.759	1197.599	1088.858	-301.319	1194.164	1079.068	-238.476	1203.093	935.390	-235.451	1109.569	470.249	-37.447	1341.799	498.882	-301.803	1158.503	522.563	-101.855	1264.351	549.652	-252.605	1153.899	439.099	-115.217	1265.741	462.633	-236.987	941.528	218.174	-59.031	1359.269	180.423	-300.173	983.110	254.135	-119.276	1287.932	221.586	-278.259	935.126	39.762	-186.028	1393.830	52.430	-265.422
	102	1.19167	1181.885	685.102	-226.824	1171.602	691.274	-161.137	1179.505	691.424	-286.717	1104.038	382.647	-165.191	1232.619	381.462	-259.928	898.179	123.059	-164.921	1302.137	63.598	-257.190	1240.130	755.864	-219.786	1234.063	755.749	-123.382	1246.198	755.978	-316.189	1092.246	792.911	-208.584	1093.407	787.596	-263.679	1100.642	382.729	-114.806	1232.633	377.159	-309.742	1106.472	372.914	-211.567	1229.911	381.217	-203.741	892.921	127.263	-132.104	1295.471	61.849	-290.994	900.777	135.828	-191.133	1295.670	68.085	-229.383	1131.549	1141.786	-235.446	1205.510	1090.043	-171.589	1202.870	1089.241	-301.928	1199.337	1079.426	-239.165	1202.627	934.899	-237.600	1115.549	470.580	-37.119	1345.138	498.489	-302.004	1164.268	522.753	-101.747	1267.956	549.681	-252.963	1159.432	438.929	-114.140	1268.669	462.648	-237.347	946.341	219.963	-58.570	1360.682	179.760	-299.792	988.733	255.017	-118.716	1289.496	221.396	-278.423	936.789	40.151	-185.806	1394.192	51.486	-264.906
	103	1.20000	1186.636	685.441	-227.513	1176.190	691.668	-161.768	1183.868	691.860	-287.362	1110.613	382.372	-164.441	1235.312	381.717	-260.316	902.952	124.850	-164.399	1302.516	63.402	-257.067	1244.744	756.145	-220.510	1238.851	755.998	-124.117	1250.637	756.293	-316.903	1097.367	793.370	-208.993	1098.036	788.209	-264.031	1107.305	382.638	-114.050	1235.402	377.388	-310.128	1111.780	372.143	-209.887	1232.559	381.488	-204.210	897.565	129.199	-131.622	1296.031	61.687	-290.909	905.603	137.475	-190.409	1296.406	67.855	-229.322	1136.929	1142.323	-236.012	1217.031	1092.746	-173.680	1208.091	1089.615	-302.557	1204.529	1079.791	-239.826	1215.345	936.462	-236.382	1121.750	470.809	-36.782	1348.495	498.104	-302.224	1170.273	522.887	-101.653	1271.485	549.733	-253.366	1165.178	438.920	-113.239	1271.760	462.770	-237.755	951.405	221.726	-58.110	1362.117	179.070	-299.362	994.485	255.986	-118.075	1291.140	221.205	-278.570	938.605	40.682	-185.528	1394.538	50.532	-264.376
	104	1.20833	1191.328	685.748	-228.175	1180.715	692.044	-162.347	1188.127	692.263	-287.957	1117.436	382.036	-163.723	1238.086	381.961	-260.677	907.886	126.718	-163.932	1302.876	63.208	-256.917	1249.255	756.422	-221.214	1243.568	756.255	-124.851	1254.941	756.590	-317.577	1102.436	793.762	-209.437	1102.596	788.755	-264.394	1114.244	382.464	-113.326	1238.233	377.606	-310.487	1118.241	371.474	-208.700	1235.362	381.667	-204.762	902.397	131.196	-131.189	1296.592	61.532	-290.798	910.523	139.228	-189.705	1297.026	67.650	-229.050	1142.229	1142.839	-236.529	1215.963	1090.715	-172.885	1213.253	1089.979	-303.183	1209.936	1080.240	-240.485	1212.294	935.614	-238.936	1128.180	470.929	-36.441	1351.868	497.723	-302.456	1176.348	523.087	-101.529	1274.902	549.792	-253.778	1171.536	439.095	-112.555	1274.878	462.856	-238.205	956.726	223.455	-57.669	1363.593	178.358	-298.851	1000.344	257.039	-117.365	1292.840	221.105	-278.623	940.584	41.357	-185.204	1394.878	49.572	-263.806
	105	1.21667	1195.934	686.022	-228.801	1185.175	692.396	-162.874	1192.282	692.625	-288.502	1124.518	381.638	-163.054	1240.945	382.194	-260.999	912.992	128.670	-163.545	1303.219	63.020	-256.727	1253.664	756.686	-221.898	1248.216	756.510	-125.583	1259.113	756.861	-318.212	1107.422	794.090	-209.901	1107.086	789.233	-264.762	1121.469	382.204	-112.650	1241.136	377.812	-310.806	1125.823	370.525	-207.666	1237.936	381.887	-205.403	907.427	133.260	-130.831	1297.166	61.385	-290.652	915.534	141.060	-189.077	1297.276	67.564	-228.851	1147.477	1143.317	-237.010	1226.359	1093.034	-174.559	1218.313	1090.394	-303.829	1215.254	1080.692	-241.130	1223.743	936.973	-237.950	1134.848	470.932	-36.108	1355.260	497.347	-302.687	1182.506	523.244	-101.351	1278.428	549.893	-254.208	1178.461	439.208	-111.888	1277.934	462.858	-238.685	962.311	225.136	-57.267	1365.126	177.630	-298.234	1006.394	258.008	-116.698	1294.591	221.080	-278.584	942.722	42.163	-184.846	1395.219	48.609	-263.178
